<mxfile host="Electron" agent="Mozilla/5.0 (X11; Linux x86_64) AppleWebKit/537.36 (KHTML, like Gecko) draw.io/28.1.2 Chrome/138.0.7204.243 Electron/37.4.0 Safari/537.36" version="28.1.2">
  <diagram name="Page-1" id="pw1yM4c9U9q3CPbkuXtG">
    <mxGraphModel dx="1850" dy="902" grid="1" gridSize="10" guides="1" tooltips="1" connect="1" arrows="1" fold="1" page="1" pageScale="1" pageWidth="850" pageHeight="1100" math="0" shadow="0">
      <root>
        <mxCell id="0" />
        <mxCell id="1" parent="0" />
        <mxCell id="7N5agTIx9JFiQQaqSErQ-8" style="edgeStyle=orthogonalEdgeStyle;rounded=0;orthogonalLoop=1;jettySize=auto;html=1;entryX=0;entryY=0.5;entryDx=0;entryDy=0;" edge="1" parent="1" source="7N5agTIx9JFiQQaqSErQ-2" target="7N5agTIx9JFiQQaqSErQ-3">
          <mxGeometry relative="1" as="geometry" />
        </mxCell>
        <mxCell id="7N5agTIx9JFiQQaqSErQ-2" value="&lt;font style=&quot;font-size: 24px;&quot;&gt;7&lt;/font&gt;" style="rounded=0;whiteSpace=wrap;html=1;" vertex="1" parent="1">
          <mxGeometry x="130" y="340" width="60" height="40" as="geometry" />
        </mxCell>
        <mxCell id="7N5agTIx9JFiQQaqSErQ-9" style="edgeStyle=orthogonalEdgeStyle;rounded=0;orthogonalLoop=1;jettySize=auto;html=1;" edge="1" parent="1" source="7N5agTIx9JFiQQaqSErQ-3" target="7N5agTIx9JFiQQaqSErQ-4">
          <mxGeometry relative="1" as="geometry" />
        </mxCell>
        <mxCell id="7N5agTIx9JFiQQaqSErQ-3" value="&lt;font style=&quot;font-size: 24px;&quot;&gt;5&lt;/font&gt;" style="rounded=0;whiteSpace=wrap;html=1;" vertex="1" parent="1">
          <mxGeometry x="220" y="340" width="60" height="40" as="geometry" />
        </mxCell>
        <mxCell id="7N5agTIx9JFiQQaqSErQ-10" style="edgeStyle=orthogonalEdgeStyle;rounded=0;orthogonalLoop=1;jettySize=auto;html=1;entryX=0;entryY=0.5;entryDx=0;entryDy=0;" edge="1" parent="1" source="7N5agTIx9JFiQQaqSErQ-4" target="7N5agTIx9JFiQQaqSErQ-5">
          <mxGeometry relative="1" as="geometry" />
        </mxCell>
        <mxCell id="7N5agTIx9JFiQQaqSErQ-4" value="&lt;span style=&quot;font-size: 24px;&quot;&gt;8&lt;/span&gt;" style="rounded=0;whiteSpace=wrap;html=1;" vertex="1" parent="1">
          <mxGeometry x="310" y="340" width="60" height="40" as="geometry" />
        </mxCell>
        <mxCell id="7N5agTIx9JFiQQaqSErQ-11" style="edgeStyle=orthogonalEdgeStyle;rounded=0;orthogonalLoop=1;jettySize=auto;html=1;entryX=0;entryY=0.5;entryDx=0;entryDy=0;" edge="1" parent="1" source="7N5agTIx9JFiQQaqSErQ-5" target="7N5agTIx9JFiQQaqSErQ-6">
          <mxGeometry relative="1" as="geometry" />
        </mxCell>
        <mxCell id="7N5agTIx9JFiQQaqSErQ-5" value="&lt;font style=&quot;font-size: 24px;&quot;&gt;1&lt;/font&gt;" style="rounded=0;whiteSpace=wrap;html=1;" vertex="1" parent="1">
          <mxGeometry x="400" y="340" width="60" height="40" as="geometry" />
        </mxCell>
        <mxCell id="7N5agTIx9JFiQQaqSErQ-12" style="edgeStyle=orthogonalEdgeStyle;rounded=0;orthogonalLoop=1;jettySize=auto;html=1;" edge="1" parent="1" source="7N5agTIx9JFiQQaqSErQ-6" target="7N5agTIx9JFiQQaqSErQ-7">
          <mxGeometry relative="1" as="geometry" />
        </mxCell>
        <mxCell id="7N5agTIx9JFiQQaqSErQ-6" value="&lt;font style=&quot;font-size: 24px;&quot;&gt;0&lt;/font&gt;" style="rounded=0;whiteSpace=wrap;html=1;" vertex="1" parent="1">
          <mxGeometry x="490" y="340" width="60" height="40" as="geometry" />
        </mxCell>
        <mxCell id="7N5agTIx9JFiQQaqSErQ-14" style="edgeStyle=orthogonalEdgeStyle;rounded=0;orthogonalLoop=1;jettySize=auto;html=1;entryX=0;entryY=0.5;entryDx=0;entryDy=0;" edge="1" parent="1" source="7N5agTIx9JFiQQaqSErQ-7" target="7N5agTIx9JFiQQaqSErQ-13">
          <mxGeometry relative="1" as="geometry" />
        </mxCell>
        <mxCell id="7N5agTIx9JFiQQaqSErQ-7" value="&lt;span style=&quot;font-size: 24px;&quot;&gt;11&lt;/span&gt;" style="rounded=0;whiteSpace=wrap;html=1;" vertex="1" parent="1">
          <mxGeometry x="580" y="340" width="60" height="40" as="geometry" />
        </mxCell>
        <mxCell id="7N5agTIx9JFiQQaqSErQ-13" value="&lt;span style=&quot;font-size: 24px;&quot;&gt;...&lt;/span&gt;" style="rounded=0;whiteSpace=wrap;html=1;strokeColor=none;" vertex="1" parent="1">
          <mxGeometry x="670" y="340" width="60" height="40" as="geometry" />
        </mxCell>
      </root>
    </mxGraphModel>
  </diagram>
</mxfile>
